<svg xmlns="http://www.w3.org/2000/svg" version="1.1" xmlns:xlink="http://www.w3.org/1999/xlink" xmlns:svgjs="http://svgjs.dev/svgjs" width="300" height="300"><svg width="300" height="300" viewBox="0 0 300 300" fill="none" xmlns="http://www.w3.org/2000/svg">
<rect width="300" height="300" fill="#615D6C"></rect>
<path d="M109.836 170.919V127.332C109.836 114.857 116.302 107.402 128.625 107.402C140.872 107.402 147.413 114.781 147.413 127.332V135.927H135.395V126.571C135.395 121.246 132.808 119.04 129.005 119.04C125.202 119.04 122.615 121.246 122.615 126.571V171.907C122.615 177.232 125.202 179.286 129.005 179.286C132.808 179.286 135.395 177.232 135.395 171.907V159.432H147.413V170.919C147.413 183.394 140.948 190.848 128.625 190.848C116.378 190.848 109.836 183.394 109.836 170.919Z" fill="white"></path>
<path d="M171.299 190.848C159.052 190.848 152.51 183.47 152.51 170.919V159.432H164.529V171.831C164.529 177.156 167.115 179.21 170.918 179.21C174.722 179.21 177.308 177.156 177.308 171.831V126.495C177.308 121.17 174.722 118.964 170.918 118.964C167.115 118.964 164.529 121.17 164.529 126.495V135.851H152.51V127.256C152.51 114.781 158.976 107.326 171.299 107.326C183.546 107.326 190.088 114.704 190.088 127.256V170.843C190.088 183.394 183.622 190.848 171.299 190.848Z" fill="white"></path>
<path d="M102.534 102.762L81.767 81.9953L89.2216 95.2311C78.7243 106.87 71.8782 121.018 69.3679 136.308L85.4943 131.82C85.5704 131.439 85.7225 131.059 85.7986 130.679C85.7986 130.603 85.8747 130.527 85.8747 130.374C86.1029 129.538 86.4071 128.777 86.6353 128.016C86.6353 127.94 86.7114 127.864 86.7114 127.788C87.3199 126.115 87.9285 124.517 88.6131 122.996C88.6131 122.92 88.6892 122.92 88.6892 122.844C89.0695 122.083 89.3738 121.246 89.7541 120.486C89.7541 120.41 89.8302 120.41 89.8302 120.334C90.5909 118.736 91.4276 117.215 92.3404 115.693C92.3404 115.693 92.3404 115.693 92.3404 115.617C92.7968 114.857 93.2532 114.096 93.7096 113.411C93.7096 113.411 93.7096 113.335 93.7857 113.335C94.7746 111.814 95.7635 110.369 96.9045 108.999C98.7301 106.793 100.556 104.74 102.534 102.762Z" fill="white"></path>
<path d="M97.2088 191.153L97.1328 191.077C97.0567 191.001 97.0567 190.924 96.9806 190.848C96.6003 190.392 96.296 189.936 95.9157 189.479C95.8396 189.403 95.7636 189.251 95.6875 189.175C95.3071 188.719 95.0029 188.186 94.6225 187.73C94.6225 187.654 94.5465 187.654 94.5465 187.578C94.1661 187.045 93.7858 186.436 93.4055 185.904C93.3294 185.828 93.3294 185.752 93.3294 185.752C93.0251 185.219 92.7208 184.763 92.4166 184.231C92.3405 184.078 92.2644 184.002 92.1884 183.85C91.8841 183.318 91.5798 182.861 91.3516 182.329C91.2755 182.253 91.2756 182.177 91.1995 182.101C90.8952 181.492 90.5909 180.884 90.2106 180.275C90.2106 180.199 90.1345 180.199 90.1345 180.123C89.8302 179.59 89.602 179.058 89.3738 178.525C89.2978 178.373 89.2217 178.297 89.2217 178.145C88.9935 177.613 88.7653 177.08 88.5371 176.624C88.461 176.548 88.461 176.472 88.385 176.319C88.0807 175.711 87.8525 175.026 87.6243 174.418V174.342C87.3961 173.733 87.1679 173.125 86.9397 172.592C86.8636 172.44 86.8636 172.288 86.7875 172.212C86.6354 171.679 86.4072 171.147 86.2551 170.614C86.2551 170.538 86.179 170.386 86.179 170.31C85.9508 169.625 85.7987 169.017 85.5705 168.332C83.973 162.627 83.0602 156.542 83.0602 150.304H20L69.4441 164.073C72.0304 179.362 78.9526 193.435 89.4499 205.073L97.2088 191.153Z" fill="white"></path>
<path d="M131.896 214.429C131.515 214.353 131.135 214.201 130.755 214.125C130.679 214.125 130.527 214.049 130.45 214.049C129.614 213.821 128.853 213.517 128.092 213.288C128.016 213.288 127.94 213.212 127.788 213.212C126.191 212.604 124.517 211.995 122.996 211.311C122.92 211.311 122.92 211.235 122.844 211.235C122.083 210.854 121.246 210.55 120.486 210.17C120.41 210.17 120.41 210.094 120.333 210.094C118.736 209.333 117.215 208.496 115.693 207.583C115.693 207.583 115.693 207.583 115.617 207.583C114.857 207.127 114.096 206.671 113.411 206.214C113.411 206.214 113.335 206.214 113.335 206.138C111.814 205.149 110.369 204.16 108.999 203.019C106.793 201.346 104.74 199.444 102.762 197.542L81.9953 218.309L95.2311 210.854C106.869 221.352 121.018 228.198 136.308 230.708L131.896 214.429Z" fill="white"></path>
<path d="M218.157 217.929L210.702 204.693C221.199 193.054 228.045 178.906 230.556 163.616L214.429 168.104C214.353 168.484 214.201 168.865 214.125 169.245C214.125 169.321 214.049 169.397 214.049 169.549C213.821 170.386 213.516 171.147 213.288 171.908C213.288 171.984 213.212 172.06 213.212 172.136C212.604 173.809 211.995 175.407 211.31 176.928C211.31 177.004 211.234 177.004 211.234 177.08C210.854 177.841 210.55 178.678 210.169 179.438C210.169 179.514 210.093 179.514 210.093 179.59C209.333 181.188 208.496 182.709 207.583 184.231C207.583 184.231 207.583 184.231 207.583 184.307C207.127 185.067 206.67 185.828 206.214 186.513C206.214 186.513 206.214 186.589 206.138 186.589C205.149 188.11 204.16 189.555 203.019 190.924C201.346 193.13 199.444 195.184 197.542 197.162L218.157 217.929Z" fill="white"></path>
<path d="M191.153 202.715L191.077 202.791C191 202.867 190.924 202.867 190.848 202.943C190.392 203.324 189.936 203.628 189.479 204.008C189.403 204.084 189.251 204.16 189.175 204.236C188.718 204.617 188.186 204.921 187.73 205.301C187.653 205.301 187.654 205.377 187.577 205.377C187.045 205.758 186.436 206.138 185.904 206.518C185.828 206.595 185.752 206.595 185.752 206.595C185.219 206.899 184.763 207.203 184.23 207.507C184.078 207.583 184.002 207.659 183.85 207.736C183.318 208.04 182.861 208.344 182.329 208.572C182.253 208.648 182.177 208.648 182.101 208.724C181.492 209.029 180.883 209.333 180.275 209.713C180.199 209.713 180.199 209.789 180.123 209.789C179.59 210.094 179.058 210.322 178.525 210.55C178.373 210.626 178.297 210.702 178.145 210.702C177.613 210.93 177.08 211.159 176.624 211.387C176.548 211.463 176.472 211.463 176.319 211.539C175.711 211.843 175.026 212.071 174.418 212.3H174.342C173.733 212.528 173.201 212.756 172.592 212.984C172.44 213.06 172.288 213.06 172.212 213.136C171.679 213.288 171.147 213.517 170.614 213.669C170.538 213.669 170.386 213.745 170.31 213.745C169.625 213.973 169.017 214.125 168.332 214.353C162.627 215.951 156.542 216.864 150.304 216.864V280L164.072 230.556C179.362 227.97 193.435 221.047 205.073 210.55L191.153 202.715Z" fill="white"></path>
<path d="M149.848 68.3031V20L136.079 69.4441C120.79 72.0304 106.717 78.9526 95.0789 89.45L108.771 97.2089L108.847 97.1328C108.923 97.0568 108.999 97.0568 109.075 96.9807C109.532 96.6003 109.988 96.2961 110.445 95.9157C110.521 95.8397 110.673 95.7636 110.749 95.6875C111.205 95.3072 111.738 95.0029 112.194 94.6226C112.27 94.6226 112.27 94.5465 112.346 94.5465C112.879 94.1662 113.487 93.7858 114.02 93.4055C114.096 93.3294 114.172 93.3294 114.172 93.2534C114.704 92.9491 115.161 92.6448 115.693 92.3405C115.845 92.2645 115.922 92.1884 116.074 92.1123C116.606 91.8081 117.063 91.5038 117.595 91.2756C117.671 91.1995 117.747 91.1995 117.823 91.1235C118.432 90.8192 119.04 90.5149 119.649 90.1346C119.725 90.1346 119.725 90.0585 119.801 90.0585C120.333 89.7542 120.866 89.526 121.398 89.2978C121.551 89.2218 121.627 89.1457 121.779 89.1457C122.311 88.9175 122.844 88.6893 123.3 88.4611C123.376 88.385 123.452 88.385 123.604 88.309C124.213 88.0047 124.897 87.7765 125.506 87.5483H125.582C126.191 87.3201 126.799 87.0919 127.332 86.8637C127.484 86.7876 127.636 86.7876 127.712 86.7115C128.244 86.5594 128.777 86.3312 129.309 86.1791C129.385 86.1791 129.538 86.103 129.614 86.103C135.927 84.1252 142.697 82.9842 149.62 82.9842V68.3031H149.848Z" fill="white"></path>
<path d="M230.48 136.08C227.894 120.79 220.971 106.717 210.474 95.079L202.715 108.771L202.791 108.847C202.867 108.923 202.867 108.999 202.943 109.075C203.324 109.532 203.628 109.988 204.008 110.445C204.084 110.521 204.16 110.673 204.236 110.749C204.617 111.205 204.921 111.738 205.301 112.194C205.301 112.27 205.377 112.27 205.377 112.346C205.758 112.879 206.138 113.487 206.518 114.02C206.518 114.096 206.595 114.172 206.595 114.172C206.899 114.705 207.203 115.161 207.507 115.693C207.583 115.846 207.659 115.922 207.736 116.074C208.04 116.606 208.344 117.063 208.572 117.595C208.648 117.671 208.648 117.747 208.724 117.823C209.029 118.432 209.333 119.04 209.713 119.649C209.713 119.725 209.789 119.725 209.789 119.801C210.094 120.334 210.322 120.866 210.626 121.475C210.702 121.627 210.778 121.703 210.778 121.855C211.006 122.387 211.235 122.92 211.463 123.452C211.539 123.528 211.539 123.604 211.615 123.757C211.919 124.365 212.147 125.05 212.376 125.658V125.734C212.604 126.343 212.832 126.951 213.06 127.484C213.136 127.636 213.136 127.788 213.212 127.864C213.365 128.397 213.593 128.929 213.745 129.462C213.745 129.538 213.821 129.69 213.821 129.766C215.799 136.08 216.94 142.85 216.94 149.772H280L230.48 136.08Z" fill="white"></path>
<path d="M207.659 92.1123L217.928 81.8432L204.693 89.2978C193.054 78.8004 178.906 71.9544 163.616 69.4441L168.104 85.5705C168.484 85.6466 168.865 85.7987 169.245 85.8748C169.321 85.8748 169.397 85.9508 169.549 85.9508C170.386 86.179 171.147 86.4833 171.907 86.7115C171.984 86.7115 172.06 86.7876 172.136 86.7876C173.809 87.3961 175.407 88.0047 176.928 88.6893C177.004 88.6893 177.004 88.7653 177.08 88.7653C177.841 89.1457 178.678 89.45 179.438 89.8303C179.514 89.8303 179.514 89.9064 179.59 89.9064C181.188 90.667 182.709 91.5038 184.23 92.4166C184.23 92.4166 184.23 92.4166 184.306 92.4166C185.067 92.873 185.828 93.3294 186.512 93.7858C186.512 93.7858 186.589 93.7858 186.589 93.8619C190.392 96.3721 193.967 99.2627 197.162 102.458L207.659 92.1123Z" fill="white"></path>
</svg><style>@media (prefers-color-scheme: light) { :root { filter: none; } }
@media (prefers-color-scheme: dark) { :root { filter: none; } }
</style></svg>