<svg width="25" height="25" viewBox="0 0 25 25" fill="none" xmlns="http://www.w3.org/2000/svg">
<path fill-rule="evenodd" clip-rule="evenodd" d="M0 3.37312C0 3.09698 0.223858 2.87312 0.5 2.87312H24.4705C24.7466 2.87312 24.9705 3.09698 24.9705 3.37312V24.4999C24.9705 24.776 24.7466 24.9999 24.4705 24.9999H0.5C0.223858 24.9999 0 24.776 0 24.4999V3.37312ZM1 3.87312V23.9999H23.9705V3.87312H1Z" fill="black"/>
<path fill-rule="evenodd" clip-rule="evenodd" d="M2.39697 0.5C2.39697 0.223858 2.62083 0 2.89697 0H6.15011C6.42625 0 6.65011 0.223858 6.65011 0.5V3.37348C6.65011 3.64962 6.42625 3.87348 6.15011 3.87348C5.87397 3.87348 5.65011 3.64962 5.65011 3.37348V1H3.39697V3.37348C3.39697 3.64962 3.17312 3.87348 2.89697 3.87348C2.62083 3.87348 2.39697 3.64962 2.39697 3.37348V0.5ZM18.3203 0.5C18.3203 0.223858 18.5442 0 18.8203 0H22.0734C22.3496 0 22.5734 0.223858 22.5734 0.5V3.37348C22.5734 3.64962 22.3496 3.87348 22.0734 3.87348C21.7973 3.87348 21.5734 3.64962 21.5734 3.37348V1H19.3203V3.37348C19.3203 3.64962 19.0964 3.87348 18.8203 3.87348C18.5442 3.87348 18.3203 3.64962 18.3203 3.37348V0.5ZM0 6.87972C0 6.60358 0.223858 6.37972 0.5 6.37972H24.4705C24.7466 6.37972 24.9705 6.60358 24.9705 6.87972C24.9705 7.15586 24.7466 7.37972 24.4705 7.37972H0.5C0.223858 7.37972 0 7.15586 0 6.87972Z" fill="black"/>
<path fill-rule="evenodd" clip-rule="evenodd" d="M15.9477 9.08651C16.1883 9.2221 16.2734 9.52703 16.1378 9.76759L14.049 13.4736C13.9782 13.5992 14.069 13.7545 14.213 13.7545H16.4928V12.2325C16.4928 11.9563 16.7167 11.7325 16.9928 11.7325C17.269 11.7325 17.4928 11.9563 17.4928 12.2325V15.7172C17.4928 15.9933 17.269 16.2172 16.9928 16.2172C16.7167 16.2172 16.4928 15.9933 16.4928 15.7172V14.7545H14.213C13.3037 14.7545 12.7313 13.7748 13.1778 12.9826L15.2667 9.27658C15.4022 9.03602 15.7072 8.95092 15.9477 9.08651ZM8.87049 10.0221C8.38636 10.0221 7.99383 10.4146 7.99383 10.8987V11.5011C7.99383 11.7772 7.76997 12.0011 7.49383 12.0011C7.21769 12.0011 6.99383 11.7772 6.99383 11.5011V10.8987C6.99383 9.86233 7.83407 9.02209 8.87049 9.02209H9.90301C10.9395 9.02209 11.7798 9.86231 11.7798 10.8987V11.4868C11.7797 11.7505 11.7117 12.0098 11.5821 12.2395C11.4526 12.4692 11.2659 12.6616 11.0402 12.7981L11.0284 12.8053L8.24581 14.3841C8.16961 14.4313 8.10655 14.497 8.06249 14.5751C8.01748 14.655 7.99383 14.745 7.99383 14.8367V15.2172H11.4518C11.7279 15.2172 11.9518 15.441 11.9518 15.7172C11.9518 15.9933 11.7279 16.2172 11.4518 16.2172H7.49383C7.21769 16.2172 6.99383 15.9933 6.99383 15.7172V14.8367C6.99383 14.573 7.06189 14.3137 7.19143 14.084C7.32096 13.8543 7.50758 13.6618 7.73324 13.5254L7.74514 13.5182L10.5277 11.9394C10.6039 11.8922 10.667 11.8264 10.7111 11.7483C10.7561 11.6685 10.7797 11.5784 10.7798 11.4868V10.8987C10.7798 10.4146 10.3872 10.0221 9.90301 10.0221H8.87049ZM6.54718 18.5296C6.54718 18.2535 6.77103 18.0296 7.04718 18.0296H8.34992C9.24274 18.0296 9.96656 18.7534 9.96656 19.6463V20.7629C9.96656 21.6557 9.24274 22.3795 8.34992 22.3795H7.04718C6.77103 22.3795 6.54718 22.1557 6.54718 21.8795V18.5296ZM7.54718 19.0296V21.3795H8.34992C8.69046 21.3795 8.96656 21.1034 8.96656 20.7629V19.6463C8.96656 19.3057 8.69046 19.0296 8.34992 19.0296H7.54718ZM10.9021 18.5296C10.9021 18.2535 11.1259 18.0296 11.4021 18.0296H13.4492C13.7254 18.0296 13.9492 18.2535 13.9492 18.5296C13.9492 18.8058 13.7254 19.0296 13.4492 19.0296H11.9021V19.7047L13.1508 19.705C13.427 19.7051 13.6508 19.929 13.6507 20.2052C13.6506 20.4813 13.4267 20.7051 13.1506 20.705L11.9021 20.7047V21.3795H13.4492C13.7254 21.3795 13.9492 21.6034 13.9492 21.8795C13.9492 22.1557 13.7254 22.3795 13.4492 22.3795H11.4021C11.1259 22.3795 10.9021 22.1557 10.9021 21.8795V20.2047V18.5296ZM14.8847 19.2741C14.8847 18.5868 15.4419 18.0296 16.1292 18.0296H17.0597C17.7052 18.0296 18.2355 18.5208 18.298 19.1502C18.3253 19.425 18.1247 19.6699 17.8499 19.6972C17.5751 19.7245 17.3302 19.5238 17.3029 19.249C17.2907 19.1261 17.1861 19.0296 17.0597 19.0296H16.1292C15.9942 19.0296 15.8847 19.139 15.8847 19.2741V21.1351C15.8847 21.2701 15.9942 21.3795 16.1292 21.3795H17.0597C17.1861 21.3795 17.2907 21.2831 17.3029 21.1601C17.3302 20.8853 17.5751 20.6847 17.8499 20.712C18.1247 20.7393 18.3253 20.9842 18.298 21.259C18.2355 21.8883 17.7052 22.3795 17.0597 22.3795H16.1292C15.4419 22.3795 14.8847 21.8224 14.8847 21.1351V19.2741Z" fill="black"/>
</svg>
