<svg width="26" height="26" viewBox="0 0 26 26" fill="none" xmlns="http://www.w3.org/2000/svg">
<path d="M13.0003 0C5.82033 0 0 5.82033 0 13.0003C0 15.3625 0.630139 17.5769 1.73139 19.4859L0 26L6.75394 24.4038C8.60791 25.4215 10.7362 26 13.0003 26C20.1803 26 26.0007 20.1797 26.0007 12.9997C26.0007 5.81967 20.1803 0 13.0003 0ZM13.0003 23.6716C10.8276 23.6716 8.8067 23.0222 7.12037 21.9071L3.13015 22.9235L4.24929 19.1096C3.03871 17.3788 2.3284 15.2724 2.3284 12.9997C2.3284 7.10579 7.10645 2.3284 12.9997 2.3284C18.8929 2.3284 23.6709 7.10645 23.6709 12.9997C23.6709 18.8929 18.8935 23.6716 13.0003 23.6716Z" fill="black"/>
<path d="M16.0462 14.7163L19.1916 16.1992C19.3361 16.2674 19.4288 16.4139 19.4156 16.5729C19.3818 16.987 19.2155 17.8159 18.472 18.56C16.3729 20.6592 12.604 18.2844 12.4509 18.1923C11.5239 17.6947 10.6433 17.0281 9.8078 16.1932C8.97291 15.3583 8.30633 14.4771 7.80871 13.5501C7.71661 13.397 5.34183 9.62811 7.44097 7.52897C8.18441 6.78553 9.014 6.61921 9.42812 6.58542C9.58715 6.57217 9.73358 6.66493 9.80183 6.80938L11.2847 9.95477C11.355 10.1039 11.3238 10.2808 11.2079 10.3967L10.1027 11.502C9.86346 11.7412 9.79322 12.1129 9.95821 12.4084C10.3611 13.132 10.9037 13.8284 11.5326 14.4691C12.1733 15.0973 12.8697 15.6399 13.5933 16.0435C13.8888 16.2085 14.2605 16.1382 14.4997 15.899L15.6049 14.7938C15.7216 14.6772 15.8978 14.646 16.0462 14.7163Z" fill="black"/>
</svg>
