<svg width="16" height="16" viewBox="0 0 16 16" fill="none" xmlns="http://www.w3.org/2000/svg">
<path fill-rule="evenodd" clip-rule="evenodd" d="M15.7007 14.2239L9.47428 7.99751L15.7007 1.79108C16.0998 1.372 16.0998 0.713439 15.7007 0.314312C15.3015 -0.104771 14.623 -0.104771 14.2239 0.314312L7.99751 6.52074L1.79108 0.314312C1.372 -0.104771 0.713439 -0.104771 0.314312 0.314312C-0.104771 0.713439 -0.104771 1.372 0.314312 1.79108L6.52074 7.99751L0.314312 14.2239C-0.104771 14.623 -0.104771 15.3015 0.314312 15.7007C0.713439 16.0998 1.372 16.0998 1.79108 15.7007L7.99751 9.47428L14.2239 15.7007C14.623 16.0998 15.3015 16.0998 15.7007 15.7007C16.0998 15.3015 16.0998 14.623 15.7007 14.2239Z" fill="black"/>
</svg>
