<svg width="25" height="26" viewBox="0 0 25 26" fill="none" xmlns="http://www.w3.org/2000/svg">
<path d="M21.5234 22.4726C19.2057 24.8242 16.25 26 12.6563 26C9.16667 26 6.1849 24.7449 3.71094 22.2348C1.23698 19.7246 0 16.6463 0 13C0 9.35366 1.23698 6.27541 3.71094 3.76524C6.1849 1.25508 9.16667 0 12.6563 0C14.375 0 16.0026 0.317074 17.5391 0.95122C19.0755 1.58537 20.3906 2.48374 21.4844 3.64634L17.6563 7.37195C16.9792 6.68496 16.224 6.16972 15.3906 5.82622C14.5573 5.48272 13.6719 5.31098 12.7344 5.31098C10.7031 5.31098 8.95833 6.05081 7.5 7.53049C6.04167 9.01016 5.3125 10.8333 5.3125 13C5.3125 15.1667 6.04167 16.9898 7.5 18.4695C8.95833 19.9492 10.7031 20.689 12.7344 20.689C14.401 20.689 15.8203 20.2795 16.9922 19.4604C18.1641 18.6413 18.9583 17.4919 19.375 16.0122H12.4219V11.0976H24.7656C24.8698 11.4675 24.9349 11.8242 24.9609 12.1677C24.987 12.5112 25 12.8943 25 13.3171C25 17.0691 23.8411 20.1209 21.5234 22.4726Z" fill="black"/>
</svg>
