<svg width="26" height="26" viewBox="0 0 26 26" fill="none" xmlns="http://www.w3.org/2000/svg">
<path d="M13.0013 9.1C11.967 9.1 10.975 9.51089 10.2436 10.2423C9.51219 10.9737 9.1013 11.9657 9.1013 13C9.1013 14.0343 9.51219 15.0263 10.2436 15.7577C10.975 16.4891 11.967 16.9 13.0013 16.9C14.0356 16.9 15.0276 16.4891 15.759 15.7577C16.4904 15.0263 16.9013 14.0343 16.9013 13C16.9013 11.9657 16.4904 10.9737 15.759 10.2423C15.0276 9.51089 14.0356 9.1 13.0013 9.1ZM13.0013 6.5C14.7252 6.5 16.3785 7.18482 17.5975 8.40381C18.8165 9.62279 19.5013 11.2761 19.5013 13C19.5013 14.7239 18.8165 16.3772 17.5975 17.5962C16.3785 18.8152 14.7252 19.5 13.0013 19.5C11.2774 19.5 9.62409 18.8152 8.40511 17.5962C7.18612 16.3772 6.5013 14.7239 6.5013 13C6.5013 11.2761 7.18612 9.62279 8.40511 8.40381C9.62409 7.18482 11.2774 6.5 13.0013 6.5ZM21.4513 6.175C21.4513 6.60598 21.2801 7.0193 20.9753 7.32405C20.6706 7.62879 20.2573 7.8 19.8263 7.8C19.3953 7.8 18.982 7.62879 18.6773 7.32405C18.3725 7.0193 18.2013 6.60598 18.2013 6.175C18.2013 5.74402 18.3725 5.3307 18.6773 5.02595C18.982 4.7212 19.3953 4.55 19.8263 4.55C20.2573 4.55 20.6706 4.7212 20.9753 5.02595C21.2801 5.3307 21.4513 5.74402 21.4513 6.175ZM13.0013 2.6C9.7851 2.6 9.2599 2.6091 7.7636 2.6754C6.7444 2.7235 6.0606 2.86 5.4262 3.107C4.8953 3.30192 4.41534 3.61434 4.0222 4.0209C3.61531 4.41402 3.30246 4.89396 3.107 5.4249C2.86 6.0619 2.7235 6.7444 2.6767 7.7623C2.6091 9.1975 2.6 9.6993 2.6 13C2.6 16.2175 2.6091 16.7414 2.6754 18.2377C2.7235 19.2556 2.86 19.9407 3.1057 20.5738C3.3267 21.1393 3.5867 21.5462 4.0183 21.9778C4.4564 22.4146 4.8633 22.6759 5.4223 22.8917C6.0645 23.14 6.7483 23.2778 7.7623 23.3246C9.1975 23.3922 9.6993 23.4 13 23.4C16.2175 23.4 16.7414 23.3909 18.2377 23.3246C19.2543 23.2765 19.9381 23.14 20.5738 22.8943C21.1042 22.6984 21.584 22.3861 21.9778 21.9804C22.4159 21.5436 22.6772 21.1367 22.893 20.5764C23.14 19.9368 23.2778 19.253 23.3246 18.2364C23.3922 16.8025 23.4 16.2994 23.4 13C23.4 9.7838 23.3909 9.2586 23.3246 7.7623C23.2765 6.7457 23.1387 6.0593 22.893 5.4249C22.697 4.89452 22.3848 4.41478 21.9791 4.0209C21.5862 3.6138 21.1062 3.30092 20.5751 3.1057C19.9381 2.8587 19.2543 2.7222 18.2377 2.6754C16.8038 2.6078 16.302 2.6 13 2.6M13 0C16.5321 0 16.9728 0.0129999 18.3599 0.0779999C19.7431 0.143 20.6869 0.3601 21.515 0.6825C22.373 1.0127 23.0958 1.4599 23.8186 2.1814C24.4796 2.83126 24.9911 3.61737 25.3175 4.485C25.6386 5.3131 25.857 6.2569 25.922 7.6414C25.9831 9.0272 26 9.4679 26 13C26 16.5321 25.987 16.9728 25.922 18.3586C25.857 19.7431 25.6386 20.6856 25.3175 21.515C24.992 22.3831 24.4804 23.1694 23.8186 23.8186C23.1686 24.4794 22.3825 24.9909 21.515 25.3175C20.6869 25.6386 19.7431 25.857 18.3599 25.922C16.9728 25.9831 16.5321 26 13 26C9.4679 26 9.0272 25.987 7.6401 25.922C6.2569 25.857 5.3144 25.6386 4.485 25.3175C3.61702 24.9918 2.83079 24.4802 2.1814 23.8186C1.52026 23.1688 1.00875 22.3827 0.6825 21.515C0.3601 20.6869 0.143 19.7431 0.0779999 18.3586C0.0155999 16.9728 0 16.5321 0 13C0 9.4679 0.0129999 9.0272 0.0779999 7.6414C0.143 6.2569 0.3601 5.3144 0.6825 4.485C1.00781 3.61683 1.51944 2.83052 2.1814 2.1814C2.83097 1.52 3.61716 1.00845 4.485 0.6825C5.3131 0.3601 6.2556 0.143 7.6401 0.0779999C9.0285 0.0168999 9.4692 0 13.0013 0" fill="black"/>
</svg>
