<svg width="27" height="34" viewBox="0 0 27 34" fill="none" xmlns="http://www.w3.org/2000/svg">
<path d="M15.6875 15.6875C16.3403 15.0347 16.6667 14.25 16.6667 13.3333C16.6667 12.4167 16.3403 11.6319 15.6875 10.9792C15.0347 10.3264 14.25 10 13.3333 10C12.4167 10 11.6319 10.3264 10.9792 10.9792C10.3264 11.6319 10 12.4167 10 13.3333C10 14.25 10.3264 15.0347 10.9792 15.6875C11.6319 16.3403 12.4167 16.6667 13.3333 16.6667C14.25 16.6667 15.0347 16.3403 15.6875 15.6875ZM13.3333 28.9167C16.7222 25.8056 19.2361 22.9792 20.875 20.4375C22.5139 17.8958 23.3333 15.6389 23.3333 13.6667C23.3333 10.6389 22.3681 8.15972 20.4375 6.22917C18.5069 4.29861 16.1389 3.33333 13.3333 3.33333C10.5278 3.33333 8.15972 4.29861 6.22917 6.22917C4.29861 8.15972 3.33333 10.6389 3.33333 13.6667C3.33333 15.6389 4.15278 17.8958 5.79167 20.4375C7.43055 22.9792 9.94444 25.8056 13.3333 28.9167ZM13.3333 33.3333C8.86111 29.5278 5.52083 25.9931 3.3125 22.7292C1.10417 19.4653 0 16.4444 0 13.6667C0 9.5 1.34028 6.18056 4.02083 3.70833C6.70139 1.23611 9.80556 0 13.3333 0C16.8611 0 19.9653 1.23611 22.6458 3.70833C25.3264 6.18056 26.6667 9.5 26.6667 13.6667C26.6667 16.4444 25.5625 19.4653 23.3542 22.7292C21.1458 25.9931 17.8056 29.5278 13.3333 33.3333Z" fill="black"/>
</svg>
