<svg width="170" height="100" viewBox="0 0 170 100" fill="none" xmlns="http://www.w3.org/2000/svg">
<path d="M34.5523 58.0456V41.2814C34.5523 36.4833 37.0392 33.6161 41.7788 33.6161C46.4891 33.6161 49.0052 36.454 49.0052 41.2814V44.5875H44.3826V40.9889C44.3826 38.9409 43.3879 38.0924 41.925 38.0924C40.4622 38.0924 39.4675 38.9409 39.4675 40.9889V58.426C39.4675 60.4739 40.4622 61.2639 41.925 61.2639C43.3879 61.2639 44.3826 60.4739 44.3826 58.426V53.6278H49.0052V58.0456C49.0052 62.8438 46.5184 65.7109 41.7788 65.7109C37.0684 65.7109 34.5523 62.8438 34.5523 58.0456Z" fill="black"/>
<path d="M58.1919 65.7109C53.4815 65.7109 50.9655 62.873 50.9655 58.0456V53.6278H55.588V58.3967C55.588 60.4447 56.5828 61.2346 58.0456 61.2346C59.5085 61.2346 60.5032 60.4447 60.5032 58.3967V40.9596C60.5032 38.9116 59.5085 38.0632 58.0456 38.0632C56.5828 38.0632 55.588 38.9116 55.588 40.9596V44.5582H50.9655V41.2522C50.9655 36.454 53.4523 33.5869 58.1919 33.5869C62.9023 33.5869 65.4184 36.4248 65.4184 41.2522V58.0164C65.4184 62.8437 62.9315 65.7109 58.1919 65.7109Z" fill="black"/>
<path d="M31.7437 31.8315L23.7566 23.8444L26.6237 28.935C22.5863 33.4114 19.9532 38.8531 18.9877 44.7338L25.1901 43.0076C25.2194 42.8613 25.2779 42.715 25.3072 42.5688C25.3072 42.5395 25.3364 42.5102 25.3364 42.4517C25.4242 42.1299 25.5412 41.8373 25.629 41.5448C25.629 41.5155 25.6582 41.4862 25.6582 41.457C25.8923 40.8133 26.1264 40.1989 26.3897 39.6138C26.3897 39.5845 26.4189 39.5845 26.4189 39.5553C26.5652 39.2627 26.6822 38.9409 26.8285 38.6483C26.8285 38.6191 26.8578 38.6191 26.8578 38.5898C27.1504 37.9754 27.4722 37.3903 27.8233 36.8051C27.8233 36.8051 27.8233 36.8051 27.8233 36.7759C27.9988 36.4833 28.1743 36.1908 28.3499 35.9274C28.3499 35.9274 28.3499 35.8982 28.3791 35.8982C28.7595 35.313 29.1398 34.7572 29.5787 34.2305C30.2808 33.3821 30.983 32.5922 31.7437 31.8315Z" fill="black"/>
<path d="M29.6957 65.828L29.6665 65.7987C29.6372 65.7695 29.6372 65.7402 29.608 65.7109C29.4617 65.5354 29.3446 65.3599 29.1984 65.1843C29.1691 65.1551 29.1399 65.0965 29.1106 65.0673C28.9643 64.8918 28.8473 64.687 28.701 64.5114C28.701 64.4822 28.6717 64.4822 28.6717 64.4529C28.5255 64.2481 28.3792 64.014 28.2329 63.8092C28.2036 63.78 28.2036 63.7507 28.2036 63.7507C28.0866 63.5459 27.9696 63.3704 27.8525 63.1656C27.8233 63.1071 27.794 63.0778 27.7648 63.0193C27.6477 62.8145 27.5307 62.639 27.4429 62.4342C27.4137 62.4049 27.4137 62.3757 27.3844 62.3464C27.2674 62.1123 27.1504 61.8783 27.0041 61.6442C27.0041 61.615 26.9748 61.615 26.9748 61.5857C26.8578 61.3809 26.77 61.1761 26.6823 60.9713C26.653 60.9128 26.6238 60.8836 26.6238 60.825C26.536 60.6202 26.4482 60.4154 26.3604 60.2399C26.3312 60.2106 26.3312 60.1814 26.3019 60.1229C26.1849 59.8888 26.0971 59.6255 26.0094 59.3915V59.3622C25.9216 59.1281 25.8338 58.8941 25.7461 58.6893C25.7168 58.6308 25.7168 58.5723 25.6875 58.543C25.629 58.3382 25.5413 58.1334 25.4827 57.9286C25.4827 57.8994 25.4535 57.8408 25.4535 57.8116C25.3657 57.5483 25.3072 57.3142 25.2194 57.0509C24.605 54.8566 24.254 52.5161 24.254 50.117H0L19.017 55.4125C20.0117 61.2932 22.6741 66.7057 26.7115 71.182L29.6957 65.828Z" fill="black"/>
<path d="M43.0369 74.7806C42.8906 74.7513 42.7443 74.6928 42.598 74.6636C42.5688 74.6636 42.5102 74.6343 42.481 74.6343C42.1592 74.5465 41.8666 74.4295 41.574 74.3417C41.5448 74.3417 41.5155 74.3125 41.457 74.3125C40.8426 74.0784 40.1989 73.8444 39.6138 73.581C39.5845 73.581 39.5845 73.5518 39.5553 73.5518C39.2627 73.4055 38.9409 73.2885 38.6483 73.1422C38.6191 73.1422 38.6191 73.1129 38.5898 73.1129C37.9754 72.8204 37.3903 72.4985 36.8052 72.1475C36.8052 72.1475 36.8051 72.1475 36.7759 72.1475C36.4833 71.9719 36.1908 71.7964 35.9275 71.6208C35.9275 71.6208 35.8982 71.6208 35.8982 71.5916C35.313 71.2112 34.7572 70.8309 34.2305 70.392C33.3821 69.7484 32.5922 69.017 31.8315 68.2856L23.8444 76.2727L28.935 73.4055C33.4114 77.4429 38.8531 80.0761 44.7338 81.0415L43.0369 74.7806Z" fill="black"/>
<path d="M76.2141 76.1264L73.347 71.0357C77.3844 66.5594 80.0175 61.1176 80.983 55.237L74.7806 56.9631C74.7513 57.1094 74.6928 57.2557 74.6635 57.402C74.6635 57.4312 74.6343 57.4605 74.6343 57.519C74.5465 57.8408 74.4295 58.1334 74.3417 58.426C74.3417 58.4552 74.3124 58.4845 74.3124 58.5138C74.0784 59.1574 73.8443 59.7718 73.581 60.3569C73.581 60.3862 73.5518 60.3862 73.5518 60.4155C73.4055 60.708 73.2884 61.0298 73.1422 61.3224C73.1422 61.3517 73.1129 61.3517 73.1129 61.3809C72.8203 61.9953 72.4985 62.5805 72.1474 63.1656C72.1474 63.1656 72.1474 63.1656 72.1474 63.1949C71.9719 63.4874 71.7964 63.78 71.6208 64.0433C71.6208 64.0433 71.6208 64.0726 71.5915 64.0726C71.2112 64.6577 70.8309 65.2136 70.392 65.7402C69.7484 66.5886 69.0169 67.3786 68.2855 68.1393L76.2141 76.1264Z" fill="black"/>
<path d="M65.828 70.275L65.7987 70.3043C65.7695 70.3335 65.7402 70.3335 65.711 70.3628C65.5354 70.5091 65.3599 70.6261 65.1843 70.7724C65.1551 70.8017 65.0966 70.8309 65.0673 70.8602C64.8918 71.0064 64.687 71.1235 64.5114 71.2698C64.4822 71.2698 64.4822 71.299 64.4529 71.299C64.2481 71.4453 64.0141 71.5916 63.8093 71.7379C63.78 71.7671 63.7507 71.7671 63.7507 71.7671C63.5459 71.8842 63.3704 72.0012 63.1656 72.1182C63.1071 72.1475 63.0778 72.1767 63.0193 72.206C62.8145 72.323 62.639 72.44 62.4342 72.5278C62.4049 72.5571 62.3757 72.5571 62.3464 72.5863C62.1124 72.7033 61.8783 72.8204 61.6442 72.9667C61.615 72.9667 61.615 72.9959 61.5857 72.9959C61.3809 73.1129 61.1761 73.2007 60.9713 73.2885C60.9128 73.3177 60.8836 73.347 60.8251 73.347C60.6203 73.4348 60.4155 73.5225 60.2399 73.6103C60.2107 73.6396 60.1814 73.6396 60.1229 73.6688C59.8888 73.7859 59.6255 73.8736 59.3915 73.9614H59.3622C59.1282 74.0492 58.9234 74.1369 58.6893 74.2247C58.6308 74.254 58.5723 74.254 58.543 74.2832C58.3382 74.3417 58.1334 74.4295 57.9286 74.488C57.8994 74.488 57.8409 74.5173 57.8116 74.5173C57.5483 74.605 57.3142 74.6636 57.0509 74.7513C54.8566 75.3657 52.5161 75.7168 50.117 75.7168V100L55.4125 80.983C61.2932 79.9883 66.7057 77.3259 71.182 73.2885L65.828 70.275Z" fill="black"/>
<path d="M49.9415 18.5781V0L44.646 19.017C38.7654 20.0117 33.3528 22.6741 28.8765 26.7115L34.1428 29.6957L34.172 29.6665C34.2013 29.6372 34.2305 29.6372 34.2598 29.608C34.4353 29.4617 34.6109 29.3446 34.7864 29.1984C34.8157 29.1691 34.8742 29.1399 34.9035 29.1106C35.079 28.9643 35.2838 28.8473 35.4593 28.701C35.4886 28.701 35.4886 28.6717 35.5178 28.6717C35.7226 28.5255 35.9567 28.3792 36.1615 28.2329C36.1908 28.2036 36.22 28.2036 36.22 28.1744C36.4248 28.0573 36.6003 27.9403 36.8051 27.8233C36.8637 27.794 36.8929 27.7648 36.9514 27.7355C37.1562 27.6185 37.3318 27.5015 37.5366 27.4137C37.5658 27.3844 37.5951 27.3844 37.6243 27.3552C37.8584 27.2382 38.0924 27.1211 38.3265 26.9748C38.3558 26.9748 38.3558 26.9456 38.385 26.9456C38.5898 26.8286 38.7946 26.7408 38.9994 26.653C39.0579 26.6238 39.0872 26.5945 39.1457 26.5945C39.3505 26.5067 39.5553 26.419 39.7308 26.3312C39.7601 26.3019 39.7893 26.3019 39.8479 26.2727C40.0819 26.1556 40.3452 26.0679 40.5793 25.9801H40.6085C40.8426 25.8923 41.0766 25.8046 41.2814 25.7168C41.34 25.6875 41.3985 25.6875 41.4277 25.6583C41.6325 25.5998 41.8373 25.512 42.0421 25.4535C42.0714 25.4535 42.1299 25.4242 42.1592 25.4242C44.5875 24.6635 47.1913 24.2247 49.8537 24.2247V18.5781H49.9415Z" fill="black"/>
<path d="M80.9538 44.646C79.9591 38.7654 77.2967 33.3528 73.2593 28.8765L70.2751 34.1428L70.3043 34.172C70.3336 34.2013 70.3336 34.2305 70.3628 34.2598C70.5091 34.4353 70.6262 34.6109 70.7724 34.7864C70.8017 34.8157 70.831 34.8742 70.8602 34.9035C71.0065 35.079 71.1235 35.2838 71.2698 35.4593C71.2698 35.4886 71.2991 35.4886 71.2991 35.5179C71.4454 35.7227 71.5916 35.9567 71.7379 36.1615C71.7379 36.1908 71.7672 36.22 71.7672 36.22C71.8842 36.4248 72.0012 36.6004 72.1183 36.8052C72.1475 36.8637 72.1768 36.8929 72.206 36.9514C72.3231 37.1562 72.4401 37.3318 72.5279 37.5366C72.5571 37.5658 72.5571 37.5951 72.5864 37.6243C72.7034 37.8584 72.8204 38.0925 72.9667 38.3265C72.9667 38.3558 72.996 38.3558 72.996 38.385C73.113 38.5898 73.2008 38.7946 73.3178 39.0287C73.3471 39.0872 73.3763 39.1165 73.3763 39.175C73.4641 39.3798 73.5518 39.5846 73.6396 39.7894C73.6689 39.8186 73.6689 39.8479 73.6981 39.9064C73.8152 40.1404 73.9029 40.4038 73.9907 40.6378V40.6671C74.0785 40.9011 74.1663 41.1352 74.254 41.34C74.2833 41.3985 74.2833 41.457 74.3125 41.4863C74.371 41.6911 74.4588 41.8959 74.5173 42.1007C74.5173 42.1299 74.5466 42.1884 74.5466 42.2177C75.3073 44.646 75.7461 47.2499 75.7461 49.9122H100L80.9538 44.646Z" fill="black"/>
<path d="M72.1767 27.7355L76.1264 23.7858L71.0357 26.653C66.5594 22.6156 61.1176 19.9824 55.237 19.017L56.9631 25.2194C57.1094 25.2487 57.2557 25.3072 57.402 25.3364C57.4313 25.3364 57.4605 25.3657 57.519 25.3657C57.8409 25.4535 58.1334 25.5705 58.426 25.6583C58.4552 25.6583 58.4845 25.6875 58.5138 25.6875C59.1574 25.9216 59.7718 26.1556 60.357 26.419C60.3862 26.419 60.3862 26.4482 60.4155 26.4482C60.708 26.5945 61.0299 26.7115 61.3224 26.8578C61.3517 26.8578 61.3517 26.8871 61.3809 26.8871C61.9953 27.1796 62.5805 27.5015 63.1656 27.8525C63.1656 27.8525 63.1656 27.8525 63.1949 27.8525C63.4874 28.0281 63.78 28.2036 64.0433 28.3792C64.0433 28.3792 64.0726 28.3792 64.0726 28.4084C65.5354 29.3739 66.9105 30.4857 68.1393 31.7145L72.1767 27.7355Z" fill="black"/>
<path d="M107.226 45.6115V37.244C107.226 34.8449 108.485 33.4114 110.825 33.4114C113.166 33.4114 114.424 34.8449 114.424 37.244V38.8824H112.112V37.0685C112.112 36.0445 111.615 35.6349 110.884 35.6349C110.152 35.6349 109.655 36.0445 109.655 37.0685V45.7578C109.655 46.7818 110.152 47.1913 110.884 47.1913C111.615 47.1913 112.112 46.7818 112.112 45.7578V43.388H114.424V45.5822C114.424 47.9813 113.166 49.4149 110.825 49.4149C108.485 49.4149 107.226 48.0105 107.226 45.6115Z" fill="black"/>
<path d="M115.769 45.5237V37.361C115.769 34.8742 117.086 33.4406 119.485 33.4406C121.884 33.4406 123.201 34.8742 123.201 37.361V45.5237C123.201 48.0105 121.884 49.4441 119.485 49.4441C117.086 49.4441 115.769 48.0105 115.769 45.5237ZM120.743 45.67V37.1855C120.743 36.0737 120.246 35.6641 119.485 35.6641C118.724 35.6641 118.227 36.0737 118.227 37.1855V45.67C118.227 46.7817 118.724 47.1913 119.485 47.1913C120.246 47.1913 120.743 46.7817 120.743 45.67Z" fill="black"/>
<path d="M128.321 33.6454L129.871 44.763H129.93L131.48 33.6454H134.962V49.21H132.651V37.4488H132.592L130.807 49.21H128.759L126.975 37.4488H126.946V49.21H124.81V33.6454H128.321Z" fill="black"/>
<path d="M136.776 33.6454H140.374C142.832 33.6454 144.032 34.9912 144.032 37.478V38.9994C144.032 41.4862 142.832 42.832 140.374 42.832H139.233V49.1515H136.776V33.6454ZM140.374 40.6378C141.164 40.6378 141.574 40.2867 141.574 39.1749V37.3317C141.574 36.22 141.164 35.8689 140.374 35.8689H139.233V40.6378H140.374Z" fill="black"/>
<path d="M146.46 33.6454H149.766L152.311 49.21H149.854L149.415 46.1088V46.1673H146.635L146.197 49.21H143.944L146.46 33.6454ZM149.122 44.0608L148.04 36.3663H148.01L146.957 44.0608H149.122Z" fill="black"/>
<path d="M152.984 45.5237V44.646H155.295V45.6992C155.295 46.811 155.793 47.2206 156.553 47.2206C157.343 47.2206 157.811 46.811 157.811 45.67C157.811 44.3827 157.314 43.5635 155.734 42.1591C153.686 40.3452 153.013 39.0872 153.013 37.3025C153.013 34.8449 154.271 33.4406 156.67 33.4406C159.04 33.4406 160.24 34.8742 160.24 37.361V38.0047H157.928V37.2147C157.928 36.103 157.49 35.6934 156.7 35.6934C155.91 35.6934 155.471 36.103 155.471 37.1855C155.471 38.3265 155.968 39.1457 157.577 40.55C159.625 42.3639 160.269 43.5927 160.269 45.5237C160.269 48.069 158.982 49.4734 156.583 49.4734C154.184 49.4734 152.984 48.0105 152.984 45.5237Z" fill="black"/>
<path d="M161.264 45.5237V44.646H163.575V45.6992C163.575 46.811 164.073 47.2206 164.833 47.2206C165.623 47.2206 166.091 46.811 166.091 45.67C166.091 44.3827 165.594 43.5635 164.014 42.1591C161.966 40.3452 161.293 39.0872 161.293 37.3025C161.293 34.8449 162.551 33.4406 164.95 33.4406C167.32 33.4406 168.52 34.8742 168.52 37.361V38.0047H166.208V37.2147C166.208 36.103 165.769 35.6934 164.979 35.6934C164.19 35.6934 163.751 36.103 163.751 37.1855C163.751 38.3265 164.248 39.1457 165.857 40.55C167.905 42.3639 168.549 43.5927 168.549 45.5237C168.549 48.069 167.262 49.4734 164.862 49.4734C162.463 49.4734 161.264 48.0105 161.264 45.5237Z" fill="black"/>
<path d="M107.226 62.99V54.6226C107.226 52.2235 108.484 50.7899 110.825 50.7899C113.166 50.7899 114.424 52.2235 114.424 54.6226V56.261H112.112V54.447C112.112 53.423 111.615 53.0134 110.883 53.0134C110.152 53.0134 109.655 53.423 109.655 54.447V63.1363C109.655 64.1603 110.152 64.5699 110.883 64.5699C111.615 64.5699 112.112 64.1603 112.112 63.1363V60.7665H114.424V62.9608C114.424 65.3598 113.166 66.7934 110.825 66.7934C108.484 66.7934 107.226 65.3891 107.226 62.99Z" fill="black"/>
<path d="M117.788 51.024H121.094L123.639 66.5886H121.182L120.743 63.4874V63.5459H117.963L117.525 66.5886H115.243L117.788 51.024ZM120.45 61.4102L119.368 53.7156H119.309L118.256 61.4102H120.45Z" fill="black"/>
<path d="M124.81 51.024H128.291L129.842 62.1416H129.9L131.451 51.024H134.933V66.5886H132.621V54.7981H132.563L130.778 66.5594H128.73L126.945 54.7981V66.5594H124.81V51.024Z" fill="black"/>
<path d="M136.746 51.024H140.345C142.803 51.024 144.002 52.3698 144.002 54.8566V56.378C144.002 58.8648 142.803 60.2107 140.345 60.2107H139.204V66.5301H136.746V51.024ZM140.345 58.0164C141.135 58.0164 141.545 57.6653 141.545 56.5535V54.7104C141.545 53.5986 141.135 53.2475 140.345 53.2475H139.204V58.0164H140.345Z" fill="black"/>
<path d="M145.319 51.024H151.989V53.2475H147.776V57.3435H151.141V59.567H147.776V64.3359H151.989V66.5594H145.319V51.024Z" fill="black"/>
<path d="M157.021 51.024C159.567 51.024 160.649 52.1943 160.649 54.5933V55.5588C160.649 57.1679 160.152 58.1919 159.04 58.6308V58.6893C160.269 59.0696 160.649 60.2107 160.649 61.9661V64.687C160.649 65.4476 160.679 66.0035 160.913 66.5886H158.426C158.28 66.179 158.192 65.945 158.192 64.687V61.8198C158.192 60.3862 157.782 59.9181 156.67 59.9181H155.822V66.5886H153.364V51.024H157.021ZM156.729 57.6946C157.636 57.6946 158.192 57.285 158.192 56.0562V54.8566C158.192 53.7449 157.811 53.2475 156.934 53.2475H155.822V57.6946H156.729Z" fill="black"/>
<path d="M161.937 62.873V61.9953H164.248V63.0486C164.248 64.1603 164.745 64.5699 165.506 64.5699C166.296 64.5699 166.764 64.1603 166.764 63.0193C166.764 61.732 166.267 60.9128 164.687 59.5085C162.639 57.6946 161.966 56.4365 161.966 54.6518C161.966 52.1943 163.224 50.7899 165.623 50.7899C167.993 50.7899 169.192 52.2235 169.192 54.7104V55.354H166.881V54.5641C166.881 53.4523 166.442 53.0427 165.652 53.0427C164.862 53.0427 164.423 53.4523 164.423 54.5348C164.423 55.6758 164.921 56.495 166.53 57.8993C168.578 59.7133 169.222 60.9421 169.222 62.873C169.222 65.4184 167.934 66.8227 165.535 66.8227C163.136 66.8227 161.937 65.3891 161.937 62.873Z" fill="black"/>
</svg>
