<svg width="23" height="20" viewBox="0 0 23 20" fill="none" xmlns="http://www.w3.org/2000/svg">
<path d="M21.3775 1.30512e-05H11.3437C11.3391 1.30512e-05 11.3345 0.00224046 11.3298 0.00224046C11.3252 0.00224046 11.3206 1.30512e-05 11.3159 1.30512e-05H1.34736C0.604219 1.30512e-05 0 0.58135 0 1.29635V15.2935C0 16.0085 0.604219 16.5898 1.34736 16.5898H3.68096C4.1926 16.5898 4.607 16.9885 4.607 17.4808V20L8.39677 16.8103C8.56578 16.6678 8.78108 16.5898 9.00562 16.5898H11.3137C11.3184 16.5898 11.323 16.5876 11.3299 16.5876C11.3346 16.5876 11.3392 16.5898 11.3461 16.5898H21.3799C22.1231 16.5898 22.7273 16.0085 22.7273 15.2935V1.29633C22.7273 0.581339 22.1231 0 21.3799 0L21.3775 1.30512e-05ZM14.8582 13.3357H3.68119C3.16955 13.3357 2.75515 12.937 2.75515 12.4447C2.75515 11.9525 3.16955 11.5538 3.68119 11.5538H14.8582C15.3698 11.5538 15.7842 11.9525 15.7842 12.4447C15.7842 12.937 15.3698 13.3357 14.8582 13.3357ZM19.0416 9.18827H3.68095C3.16932 9.18827 2.75491 8.78956 2.75491 8.29731C2.75491 7.80505 3.16932 7.40634 3.68095 7.40634H19.0416C19.5532 7.40634 19.9676 7.80505 19.9676 8.29731C19.9676 8.78956 19.5532 9.18827 19.0416 9.18827ZM19.0416 5.03863H3.68095C3.16932 5.03863 2.75491 4.63992 2.75491 4.14766C2.75491 3.65541 3.16932 3.2567 3.68095 3.2567H19.0416C19.5532 3.2567 19.9676 3.65541 19.9676 4.14766C19.9676 4.63992 19.5532 5.03863 19.0416 5.03863Z" fill="black"/>
</svg>
