<svg width="22" height="22" viewBox="0 0 22 22" fill="none" xmlns="http://www.w3.org/2000/svg">
<path d="M17.9534 14.5422C17.2148 14.1975 16.3286 14.493 15.8362 15.1823L15.0976 16.3147C14.8514 16.6594 14.4083 16.8071 14.0637 16.5609C10.4201 14.5914 7.46586 11.5387 5.54561 7.84594C5.34866 7.45204 5.44713 7.05815 5.79179 6.81196L6.77654 6.12264C7.46586 5.63027 7.71205 4.69476 7.36738 3.9562L6.03798 1.14968C5.84103 0.755779 5.44713 0.558829 5.004 0.608066L2.4929 1.0512C2.00053 1.24815 1.55739 1.69129 1.36044 2.18366C0.769595 3.85772 0.868069 5.72874 1.75434 7.30433C4.80705 12.7204 9.2384 17.1518 14.6545 20.2045L14.9007 20.3522C16.3286 21.1892 18.0026 21.3862 19.5782 20.8938L19.8736 20.7953C20.5137 20.6476 21.0061 20.1553 21.2031 19.4659L21.5477 16.7579C21.5969 16.3147 21.4 15.9209 20.9569 15.7731L17.9534 14.5422Z" fill="black"/>
</svg>
