<svg width="11" height="21" viewBox="0 0 11 21" fill="none" xmlns="http://www.w3.org/2000/svg">
<path d="M6.72288 19.2596C6.72288 20.221 5.94362 21.0002 4.98227 21.0002C4.02092 21.0002 3.24167 20.221 3.24167 19.2596C3.24167 18.2983 4.02092 17.519 4.98227 17.519C5.94362 17.519 6.72288 18.2983 6.72288 19.2596Z" fill="black"/>
<path d="M9.15343 1.39757C8.02954 0.465947 6.76425 0 5.35784 0C3.68606 0 2.36615 0.539052 1.39783 1.61689C0.466209 2.66741 0.000261509 4.06498 0.000261509 5.8096H2.30215C2.30215 5.74855 2.31098 5.6974 2.31205 5.63742C2.31178 5.62376 2.30964 5.60984 2.30938 5.59591C2.30884 5.57958 2.31607 5.5686 2.31714 5.55307C2.39346 3.39338 3.40006 2.30162 5.35758 2.30162C6.1063 2.30162 6.79665 2.54369 7.42622 3.02785C8.10238 3.5578 8.44086 4.18816 8.44086 4.91895C8.44086 6.02437 8.02043 6.91047 7.18012 7.57726C6.44264 8.14978 5.70141 8.71722 4.95536 9.28117C4.87797 9.35535 4.80299 9.43355 4.72721 9.50933C3.96349 10.4144 3.57627 11.672 3.57627 13.2913V15.0586H5.90547V13.2913C5.90547 12.1583 6.33901 11.1945 7.2069 10.3997C8.02017 9.7332 8.83316 9.06641 9.64643 8.39936C10.5138 7.48594 10.9476 6.33018 10.9476 4.93288C10.9481 3.55351 10.3499 2.37499 9.15343 1.39757Z" fill="black"/>
<path d="M2.3067 5.82707C2.3067 6.39049 1.79014 6.8476 1.15389 6.8476C0.516558 6.8476 0 6.39049 0 5.82707C0 5.26365 0.516558 4.80654 1.15389 4.80654C1.79041 4.80654 2.3067 5.26365 2.3067 5.82707Z" fill="black"/>
<path d="M5.90464 15.0113C5.90464 15.5747 5.38272 16.0318 4.7387 16.0318C4.09387 16.0318 3.57169 15.575 3.57169 15.0113C3.57169 14.4479 4.09414 13.9907 4.7387 13.9907C5.38272 13.9907 5.90464 14.4476 5.90464 15.0113Z" fill="black"/>
</svg>
