<svg width="32" height="27" viewBox="0 0 32 27" fill="none" xmlns="http://www.w3.org/2000/svg">
<path d="M14.3893 20.6176C14.3893 18.9309 13.9485 17.5164 13.0668 16.3683C12.442 15.5787 11.5948 15.0593 10.5234 14.812C9.46923 14.5667 8.47256 14.5494 7.57173 14.7583C7.26506 12.9375 7.7634 11.0093 9.0284 8.96617C10.2934 6.92492 11.9321 5.38775 13.9312 4.36042L10.901 0C9.36765 0.759 7.91098 1.72117 6.56931 2.88458C5.20848 4.048 4.00098 5.38583 2.92765 6.89808C1.85431 8.41033 1.04931 10.1181 0.531813 12.0539C0.0143127 13.9897 -0.129437 15.9639 0.117813 17.9956C0.439813 20.6789 1.30615 22.8256 2.71681 24.4164C4.12556 26.0283 5.88315 26.8333 7.98381 26.8333C9.8334 26.8333 11.3686 26.2775 12.5838 25.1505C13.7875 24.0465 14.3855 22.5343 14.3855 20.6118L14.3893 20.6176ZM31.877 20.6176C31.877 18.9309 31.4361 17.5164 30.5545 16.3683C29.9296 15.5633 29.0786 15.042 28.0111 14.8024C26.9377 14.5648 25.9545 14.5533 25.0594 14.7603C24.7527 12.9586 25.2319 11.0227 26.5007 8.97192C27.7657 6.94025 29.4006 5.40692 31.3997 4.37192L28.3771 0C26.8438 0.759 25.3967 1.72117 24.0455 2.88458C22.6722 4.06524 21.4527 5.41362 20.4153 6.89808C19.3496 8.41225 18.5561 10.1181 18.0386 12.0539C17.515 13.9886 17.3737 16.0068 17.6227 17.9956C17.9409 20.6789 18.8034 22.8256 20.2102 24.4164C21.6151 26.0149 23.367 26.8161 25.4676 26.8161C27.3211 26.8161 28.8563 26.2603 30.0715 25.1352C31.2732 24.0312 31.877 22.5189 31.877 20.5965V20.6176Z" fill="black"/>
</svg>
