<svg width="16" height="13" viewBox="0 0 16 13" fill="none" xmlns="http://www.w3.org/2000/svg">
<path fill-rule="evenodd" clip-rule="evenodd" d="M13.7827 0.00341394C13.6178 0.01543 13.457 0.0600279 13.3094 0.134627C13.1619 0.209226 13.0307 0.312344 12.9233 0.438012L5.58623 8.95433L2.14601 5.40179C2.03097 5.28388 1.89376 5.18988 1.74226 5.12517C1.59076 5.06047 1.42797 5.02635 1.26325 5.02477C1.09852 5.02319 0.935106 5.05418 0.782396 5.11596C0.629687 5.17775 0.490696 5.26911 0.373411 5.38479C0.137926 5.61645 0.00370504 5.9319 7.55586e-05 6.26221C-0.00355392 6.59252 0.123703 6.91085 0.35404 7.14763L4.73916 11.6768C4.86 11.8017 5.00553 11.9 5.16648 11.9654C5.32743 12.0309 5.50025 12.0621 5.67393 12.057C5.84762 12.052 6.01834 12.0108 6.17521 11.9361C6.33207 11.8614 6.47165 11.7548 6.58501 11.6231L14.8157 2.06176C15.0322 1.81081 15.1402 1.48413 15.116 1.15355C15.0917 0.822972 14.9371 0.515563 14.6863 0.298922C14.4358 0.0853483 14.111 -0.0208959 13.7827 0.00341394Z" fill="#615D6C"/>
</svg>
