<svg width="26" height="26" viewBox="0 0 26 26" fill="none" xmlns="http://www.w3.org/2000/svg">
<path d="M20.6276 4.07333C19.4941 2.94612 18.8694 1.49851 18.8699 0H13.7462V17.9111C13.7067 18.8804 13.2369 19.7985 12.4358 20.472C11.6348 21.1456 10.5649 21.5221 9.45153 21.5222C7.09694 21.5222 5.14031 19.8467 5.14031 17.7667C5.14031 15.2822 7.89286 13.4189 10.7283 14.1844V9.62C5.00765 8.95555 0 12.8267 0 17.7667C0 22.5767 4.57653 26 9.43495 26C14.6416 26 18.8699 22.3167 18.8699 17.7667V8.68111C20.9476 9.98089 23.4421 10.6783 26 10.6744V6.21111C26 6.21111 22.8827 6.34111 20.6276 4.07333Z" fill="black"/>
</svg>
