<svg width="41" height="36" viewBox="0 0 41 36" fill="none" xmlns="http://www.w3.org/2000/svg">
<path d="M32.2 28.5C32.2 30.2478 31.5057 31.924 30.2698 33.1599C29.034 34.3957 27.3578 35.09 25.61 35.09H6.61C5.74287 35.0928 4.88372 34.9244 4.08182 34.5944C3.27991 34.2645 2.55102 33.7795 1.93694 33.1673C1.32285 32.555 0.835653 31.8276 0.503272 31.0267C0.17089 30.2258 -0.000135926 29.3672 8.10555e-08 28.5V9.50005C-1.92922e-06 7.754 0.692927 6.07933 1.92663 4.84375C3.16033 3.60817 4.83396 2.9127 6.58 2.91005H22.69C22.7862 2.9087 22.8818 2.92667 22.9709 2.96288C23.0601 2.99908 23.1411 3.05281 23.2092 3.12086C23.2772 3.18892 23.331 3.26993 23.3672 3.35911C23.4034 3.44828 23.4213 3.54381 23.42 3.64005V5.11005C23.4212 5.20625 23.4032 5.30172 23.3669 5.39083C23.3306 5.47995 23.2769 5.5609 23.2089 5.62893C23.1409 5.69696 23.0599 5.75069 22.9708 5.78694C22.8817 5.8232 22.7862 5.84126 22.69 5.84005H6.58C5.61012 5.84269 4.68072 6.22914 3.9949 6.91495C3.30909 7.60077 2.92264 8.53017 2.92 9.50005V28.5C2.92264 29.4699 3.30909 30.3993 3.9949 31.0851C4.68072 31.771 5.61012 32.1574 6.58 32.16H25.58C26.0628 32.1628 26.5415 32.0703 26.9884 31.8877C27.4354 31.7051 27.842 31.4361 28.1848 31.0961C28.5276 30.756 28.7999 30.3517 28.9861 29.9062C29.1724 29.4607 29.2688 28.9829 29.27 28.5V21.16C29.2687 21.0638 29.2866 20.9683 29.3228 20.8791C29.359 20.7899 29.4128 20.7089 29.4808 20.6409C29.5489 20.5728 29.6299 20.5191 29.7191 20.4829C29.8082 20.4467 29.9038 20.4287 30 20.43H31.49C31.5862 20.4288 31.6817 20.4469 31.7708 20.4832C31.8599 20.5194 31.9409 20.5731 32.0089 20.6412C32.0769 20.7092 32.1306 20.7902 32.1669 20.8793C32.2032 20.9684 32.2212 21.0638 32.22 21.16L32.2 28.5ZM40.98 13.13C40.9733 13.4156 40.883 13.6928 40.7202 13.9276C40.5575 14.1623 40.3295 14.3441 40.0645 14.4505C39.7995 14.557 39.5091 14.5833 39.2292 14.5264C38.9493 14.4694 38.6923 14.3316 38.49 14.13L34.49 10.13L19.55 25.0301C19.4135 25.1551 19.2351 25.2245 19.05 25.2245C18.8649 25.2245 18.6865 25.1551 18.55 25.0301L15.89 22.42C15.7538 22.2757 15.6724 22.0882 15.66 21.89C15.6704 21.6944 15.7522 21.5094 15.89 21.3701L30.81 6.50005L26.81 2.50005C26.6051 2.29822 26.4643 2.04037 26.4054 1.75884C26.3465 1.47732 26.3721 1.18466 26.4789 0.917614C26.5857 0.650564 26.769 0.421014 27.0059 0.257773C27.2427 0.0945325 27.5224 0.00487392 27.81 5.00245e-05H39.49C39.8708 -0.00307883 40.2381 0.140673 40.5156 0.401414C40.7931 0.662156 40.9594 1.01982 40.98 1.40005V13.13Z" fill="black"/>
</svg>
