<svg width="21" height="26" viewBox="0 0 21 26" fill="none" xmlns="http://www.w3.org/2000/svg">
<path fill-rule="evenodd" clip-rule="evenodd" d="M10.6841 2.01768C5.93547 1.71087 2 5.45943 2 10.1346C2 11.0292 2.15243 11.8951 2.42053 12.7206L2.42097 12.7219C3.27305 15.3583 5.33093 18.2267 7.25295 20.492C8.20246 21.6111 9.09688 22.5578 9.75361 23.2244C9.88406 23.3568 10.005 23.478 10.115 23.5872C10.2492 23.446 10.4001 23.2858 10.565 23.1086C11.2597 22.3622 12.2002 21.3173 13.1846 20.1226C15.189 17.6901 17.2476 14.7864 17.9192 12.5409C18.201 11.5893 18.3322 10.5763 18.2559 9.5349L18.2557 9.53277C17.9704 5.52523 14.6994 2.27516 10.6841 2.01768ZM10.1383 25C9.46039 25.7352 9.46025 25.735 9.46009 25.7349L9.45361 25.7289L9.43704 25.7135L9.37563 25.656C9.32249 25.6059 9.24541 25.5328 9.14729 25.4383C8.95109 25.2494 8.67054 24.9748 8.32893 24.6281C7.6463 23.9352 6.71677 22.9514 5.72791 21.7859C3.77332 19.4822 1.49695 16.3656 0.518114 13.3377C0.191731 12.3325 0 11.2584 0 10.1346C0 4.31028 4.90528 -0.359591 10.8126 0.0218134M10.1383 25C10.8447 25.7079 10.8448 25.7078 10.8449 25.7077L10.8513 25.7013L10.8683 25.6843L10.9322 25.6197C10.9877 25.5634 11.0685 25.4811 11.1714 25.3749C11.3772 25.1627 11.6716 24.8552 12.029 24.4712C12.7431 23.7039 13.7116 22.6281 14.7281 21.3944C16.7253 18.9707 19.0361 15.788 19.8357 13.1124L19.8364 13.1101C20.1802 11.9499 20.3461 10.6946 20.2506 9.3897C19.8938 4.38474 15.8255 0.343511 10.8126 0.0218134M10.1383 25L10.8449 25.7077C10.4654 26.0864 9.85421 26.0984 9.46009 25.7349L10.1383 25ZM10.1456 6.83192C8.31941 6.83192 6.84245 8.30889 6.84245 10.1351C6.84245 11.9613 8.31941 13.4382 10.1456 13.4382C11.9718 13.4382 13.4487 11.9613 13.4487 10.1351C13.4487 8.30889 11.9718 6.83192 10.1456 6.83192ZM4.84245 10.1351C4.84245 7.20432 7.21484 4.83192 10.1456 4.83192C13.0763 4.83192 15.4487 7.20432 15.4487 10.1351C15.4487 13.0658 13.0763 15.4382 10.1456 15.4382C7.21484 15.4382 4.84245 13.0658 4.84245 10.1351Z" fill="black"/>
</svg>
