<svg width="31" height="19" viewBox="0 0 31 19" fill="none" xmlns="http://www.w3.org/2000/svg">
<path fill-rule="evenodd" clip-rule="evenodd" d="M0 1.5C0 0.671573 0.671573 0 1.5 0H29.5C30.3284 0 31 0.671573 31 1.5C31 2.32843 30.3284 3 29.5 3H1.5C0.671573 3 0 2.32843 0 1.5ZM0 9.5C0 8.67157 0.671573 8 1.5 8H29.5C30.3284 8 31 8.67157 31 9.5C31 10.3284 30.3284 11 29.5 11H1.5C0.671573 11 0 10.3284 0 9.5ZM0 17.5C0 16.6716 0.671573 16 1.5 16H29.5C30.3284 16 31 16.6716 31 17.5C31 18.3284 30.3284 19 29.5 19H1.5C0.671573 19 0 18.3284 0 17.5Z" fill="black"/>
</svg>
