<svg width="17" height="21" viewBox="0 0 17 21" fill="none" xmlns="http://www.w3.org/2000/svg">
<path d="M2.62521 5.62498C2.62521 4.13342 3.21773 2.70273 4.27241 1.6472C5.32804 0.592515 6.75859 0 8.2502 0C9.7418 0 11.1725 0.592515 12.228 1.6472C13.2827 2.70282 13.8752 4.13338 13.8752 5.62498C13.8752 7.11659 13.2827 8.54724 12.228 9.60277C11.1724 10.6575 9.7418 11.25 8.2502 11.25C6.75864 11.2481 5.3289 10.6556 4.27433 9.6009C3.21965 8.54621 2.62708 7.11635 2.62521 5.62498ZM9.62173 11.9999H6.87852C5.05506 12.0018 3.30658 12.7274 2.01657 14.0165C0.727497 15.3065 0.00187709 17.0549 5.07809e-06 18.8784C-0.00186981 19.6031 0.515624 20.2247 1.22814 20.3569C3.54377 20.7844 5.89497 20.9991 8.2501 21C10.6089 20.9991 12.962 20.7834 15.2814 20.355C15.9892 20.22 16.5011 19.6003 16.5002 18.8794C16.4983 17.0559 15.7736 15.3074 14.4836 14.0174C13.1945 12.7274 11.4462 12.0018 9.62173 11.9999Z" fill="black"/>
</svg>
