<svg width="108" height="18" viewBox="0 0 108 18" fill="none" xmlns="http://www.w3.org/2000/svg">
<path d="M3.97704 17.8004L5.93145 11.4118L0.761719 7.71313H7.15033L9.16778 0.988281L11.1852 7.71313H17.5738L12.4041 11.4118L14.3585 17.8004L9.16778 13.8496L3.97704 17.8004Z" fill="black"/>
<path d="M26.3931 17.8004L28.3475 11.4118L23.1777 7.71313H29.5663L31.5838 0.988281L33.6013 7.71313H39.9899L34.8201 11.4118L36.7745 17.8004L31.5838 13.8496L26.3931 17.8004Z" fill="black"/>
<path d="M48.8091 17.8004L50.7635 11.4118L45.5938 7.71313H51.9824L53.9998 0.988281L56.0173 7.71313H62.4059L57.2362 11.4118L59.1906 17.8004L53.9998 13.8496L48.8091 17.8004Z" fill="black"/>
<path d="M71.2251 17.8004L73.1795 11.4118L68.0098 7.71313H74.3984L76.4158 0.988281L78.4333 7.71313H84.8219L79.6522 11.4118L81.6066 17.8004L76.4158 13.8496L71.2251 17.8004Z" fill="black"/>
<path d="M93.6411 17.8004L95.5955 11.4118L90.4258 7.71313H96.8144L98.8318 0.988281L100.849 7.71313H107.238L102.068 11.4118L104.023 17.8004L98.8318 13.8496L93.6411 17.8004Z" fill="black"/>
</svg>
